#!OML:ASF H:\Terrain\Patient Classification 1\Walking\liu\liu.ASF
:FULLY-SPECIFIED
:DEGREES
221
root 9.17291 16.0103 12.3396 10.3446 5.60765 6.41478
lowerback -4.98031 -6.22606 -7.02597
upperback 0.0476858 -7.93893 1.43883
thorax 3.98966 -4.10084 4.66104
lowerneck -21.455 -1.35427 -11.1967
upperneck 17.4665 -0.888975 11.606
head 9.11211 0.12441 5.80186
rclavicle 3.01159e-014 -1.98785e-014
rhumerus -57.7788 3.95135 -61.5348
rradius 25.5646
rwrist -8.23467
rhand -31.3953 -29.3945
rfingers 7.12502
rthumb -4.66486 -59.3231
lclavicle 3.01159e-014 -1.98785e-014
lhumerus 3.37342 -25.1951 78.1389
lradius 40.7822
lwrist 12.0407
lhand -18.7219 -29.6168
lfingers 7.12502
lthumb 7.57361 0.227569
rfemur -52.9155 3.35133 10.7081
rtibia 34.2877
rfoot -18.5342 -2.66247
rtoes -21.3199
lfemur 23.5033 2.34463 -27.6905
ltibia 9.54166e-015
lfoot -11.453 -6.03535
ltoes -12.7411
222
root 9.17205 15.979 12.6455 10.3451 5.68071 6.35517
lowerback -5.1731 -6.33423 -6.80951
upperback -0.022672 -8.08496 1.47521
thorax 4.01905 -4.16802 4.54608
lowerneck -21.1291 -1.1794 -11.3252
upperneck 17.4108 -0.664646 11.7363
head 9.00579 0.227519 5.89181
rclavicle 1.21358e-013 -1.23246e-014
rhumerus -58.2047 3.80037 -60.5341
rradius 25.3192
rwrist -8.39885
rhand -31.6149 -29.5613
rfingers 7.12502
rthumb -4.87694 -59.4852
lclavicle 1.21358e-013 -1.23246e-014
lhumerus 3.02428 -25.0562 78.2728
lradius 41.3321
lwrist 13.0698
lhand -19.4324 -30.1315
lfingers 7.12502
lthumb 6.88773 -0.263534
rfemur -52.9419 2.51875 11.7269
rtibia 36.0192
rfoot -15.7456 -2.02219
rtoes -21.4238
lfemur 24.4864 2.61162 -27.2283
ltibia 3.18055e-014
lfoot -9.77251 -6.23167
ltoes -13.0019
223
root 9.16655 15.9706 12.943 10.2661 5.35296 6.62149
lowerback -5.22216 -6.31551 -6.97855
upperback 0.0543598 -8.04143 1.39806
thorax 4.13376 -4.15359 4.55268
lowerneck -21.3758 -1.09838 -11.1632
upperneck 17.4718 -0.517318 11.4452
head 9.05009 0.281322 5.7849
rclavicle -5.65542e-014 7.15625e-015
rhumerus -58.2562 2.9331 -58.9791
rradius 24.6501
rwrist -7.8054
rhand -32.0571 -28.2747
rfingers 7.12502
rthumb -5.30389 -58.1883
lclavicle -5.65542e-014 7.15625e-015
lhumerus 2.95032 -24.6262 78.4142
lradius 41.725
lwrist 13.8234
lhand -19.6826 -29.9159
lfingers 7.12502
lthumb 6.64626 -0.0402476
rfemur -53.2052 2.20098 12.0382
rtibia 37.8292
rfoot -12.3438 -1.8143
rtoes -23.3783
lfemur 25.428 3.2192 -27.1358
ltibia -2.8625e-014
lfoot -7.45724 -6.59175
ltoes -10.6134
224
root 9.15491 15.9637 13.243 10.1984 4.95451 6.58723
lowerback -5.39842 -6.24324 -6.85597
upperback 0.199746 -7.93488 1.35372
thorax 4.34721 -4.10658 4.42475
lowerneck -21.567 -1.05329 -10.9479
upperneck 17.3218 -0.425317 11.132
head 9.01996 0.310589 5.64451
rclavicle -4.80065e-014 1.59028e-015
rhumerus -58.2132 1.77899 -57.6191
rradius 23.9865
rwrist -8.03326
rhand -34.1328 -27.6046
rfingers 7.12502
rthumb -7.30778 -57.4584
lclavicle -4.80065e-014 1.59028e-015
lhumerus 3.00863 -24.4662 78.3669
lradius 42.0802
lwrist 14.4701
lhand -19.9052 -29.3865
lfingers 7.12502
lthumb 6.43138 0.495896
rfemur -53.6823 2.32399 12.33
rtibia 39.7518
rfoot -9.63673 -1.65934
rtoes -24.7233
lfemur 26.458 3.92522 -26.7392
ltibia -8.5875e-014
lfoot -5.00599 -6.36479
ltoes -11.5844
225
root 9.14605 15.941 13.5425 10.2359 4.77514 6.17965
lowerback -5.52315 -6.24995 -6.38182
upperback 0.0654772 -7.97623 1.54261
thorax 4.24332 -4.11359 4.35274
lowerneck -21.1464 -0.957823 -11.3075
upperneck 17.0865 -0.250717 11.3277
head 8.84277 0.382179 5.78091
rclavicle -9.57148e-014 1.19271e-014
rhumerus -58.2664 0.635518 -55.636
rradius 23.1964
rwrist -6.92085
rhand -34.7907 -26.94
rfingers 7.12502
rthumb -7.9428 -56.7708
lclavicle -9.57148e-014 1.19271e-014
lhumerus 2.3366 -24.3032 78.8072
lradius 42.5155
lwrist 14.9285
lhand -20.6879 -29.3128
lfingers 7.12502
lthumb 5.67565 0.591143
rfemur -54.0676 2.22924 13.091
rtibia 41.7806
rfoot -7.86838 -1.39783
rtoes -23.2103
lfemur 27.4338 4.45979 -25.9583
ltibia -1.59028e-014
lfoot -1.77975 -5.40407
ltoes -12.722
226
root 9.14298 15.9155 13.8257 10.2385 4.71966 6.17133
lowerback -5.18962 -6.23771 -6.2346
upperback -0.239191 -7.99928 1.63031
thorax 3.73275 -4.10398 4.41808
lowerneck -21.0609 -0.972103 -11.5283
upperneck 17.3462 -0.227079 11.3339
head 8.91289 0.374279 5.83236
rclavicle -1.0148e-013 1.03368e-014
rhumerus -58.4753 -0.483967 -53.5223
rradius 22.377
rwrist -5.04739
rhand -34.3432 -26.7361
rfingers 7.12502
rthumb -7.5108 -56.5827
lclavicle -1.0148e-013 1.03368e-014
lhumerus 1.26465 -24.642 79.4146
lradius 43.085
lwrist 15.6869
lhand -21.5895 -29.1899
lfingers 7.12502
lthumb 4.80519 0.73556
rfemur -54.1779 1.83004 13.5121
rtibia 43.8404
rfoot -6.85733 -1.12786
rtoes -21.6135
lfemur 28.3384 4.82837 -25.607
ltibia -6.67916e-014
lfoot 2.48809 -3.69492
ltoes -11.3981
